<?xml version="1.0" standalone="no"?>
<!DOCTYPE svg PUBLIC "-//W3C//DTD SVG 20010904//EN"
 "http://www.w3.org/TR/2001/REC-SVG-20010904/DTD/svg10.dtd">
<svg version="1.0" xmlns="http://www.w3.org/2000/svg"
 width="115.000000pt" height="18.000000pt" viewBox="0 0 115.000000 18.000000"
 preserveAspectRatio="xMidYMid meet">
<metadata>
Created by potrace 1.10, written by Peter Selinger 2001-2011
</metadata>
<g transform="translate(0.000000,18.000000) scale(0.100000,-0.100000)"
fill="#000000" stroke="none">
<path d="M40 146 c0 -12 10 -16 35 -16 19 0 35 -4 35 -10 0 -5 -16 -10 -35
-10 -26 0 -35 -4 -36 -17 0 -10 -2 -28 -3 -40 -2 -18 2 -23 22 -23 19 0 23 4
19 20 -7 26 9 26 25 0 7 -11 23 -20 37 -20 23 0 23 1 7 25 -13 20 -14 28 -4
45 21 32 -1 54 -56 58 -36 2 -46 0 -46 -12z"/>
<path d="M177 154 c-4 -4 -7 -34 -7 -66 l0 -58 55 0 c38 0 55 4 55 13 0 7 -12
14 -27 15 -41 3 -54 22 -15 22 22 0 32 5 32 15 0 10 -10 15 -31 15 -17 0 -28
4 -24 10 3 6 20 10 36 10 20 0 29 4 27 13 -5 13 -89 22 -101 11z"/>
<path d="M307 154 c-4 -4 -7 -34 -7 -66 0 -44 4 -58 14 -58 9 0 16 13 19 33
l3 32 9 -33 c10 -43 37 -39 46 6 8 41 22 56 19 22 -4 -46 0 -60 15 -60 13 0
15 12 13 63 -3 58 -4 62 -27 62 -20 0 -27 -7 -34 -35 l-10 -35 -12 35 c-11 33
-33 49 -48 34z"/>
<path d="M482 144 c-12 -8 -22 -22 -22 -30 0 -20 30 -18 45 3 13 17 14 17 33
-1 11 -10 29 -16 39 -14 16 3 15 7 -9 31 -31 31 -54 34 -86 11z"/>
<path d="M607 148 c-13 -8 2 -15 43 -20 35 -4 27 -22 -11 -28 -28 -4 -33 -10
-36 -37 -4 -28 -1 -33 16 -33 14 0 21 6 21 19 0 31 19 35 32 7 7 -17 19 -26
35 -26 23 0 23 1 7 26 -13 19 -14 28 -5 37 17 17 13 37 -6 37 -14 0 -15 2 -4
9 9 6 -2 10 -33 13 -26 2 -53 0 -59 -4z"/>
<path d="M740 90 l0 -60 50 0 c28 0 50 5 50 10 0 6 -13 10 -30 10 -20 0 -30 5
-30 15 0 10 10 15 30 15 17 0 30 5 30 10 0 6 -11 10 -24 10 -14 0 -28 5 -31
10 -4 6 7 10 24 10 21 0 31 5 31 15 0 11 -12 15 -50 15 l-50 0 0 -60z"/>
<path d="M862 90 c-3 -54 -1 -60 16 -60 11 0 22 9 25 20 7 25 24 26 32 1 3
-10 17 -21 30 -24 30 -5 31 -3 4 40 l-21 34 23 25 22 24 -23 0 c-13 0 -34 -10
-47 -22 l-23 -21 0 21 c0 14 -6 22 -18 22 -14 0 -18 -10 -20 -60z"/>
<path d="M1025 142 c-5 -4 -11 -17 -13 -28 -2 -16 5 -24 28 -32 31 -11 41 -32
15 -32 -8 0 -15 5 -15 10 0 6 -9 10 -20 10 -24 0 -26 -13 -5 -30 20 -17 76
-15 86 2 15 23 10 36 -21 55 -16 9 -30 21 -30 26 0 5 7 4 15 -3 8 -7 23 -9 32
-5 17 6 17 7 -1 21 -21 15 -55 18 -71 6z"/>
<path d="M460 67 c0 -23 23 -37 60 -37 37 0 60 14 60 36 0 13 -24 13 -36 1
-11 -11 -44 -8 -44 3 0 6 -9 10 -20 10 -11 0 -20 -6 -20 -13z"/>
</g>
</svg>
